<?xml version="1.0" standalone="no"?>
<!DOCTYPE svg PUBLIC "-//W3C//DTD SVG 20010904//EN"
 "http://www.w3.org/TR/2001/REC-SVG-20010904/DTD/svg10.dtd">
<svg version="1.0" xmlns="http://www.w3.org/2000/svg"
 width="258.000000pt" height="173.000000pt" viewBox="0 0 258.000000 173.000000"
 preserveAspectRatio="xMidYMid meet">
<metadata>
Created by potrace 1.10, written by Peter Selinger 2001-2011
</metadata>
<g transform="translate(0.000000,173.000000) scale(0.100000,-0.100000)"
fill="#d6b65a" stroke="none">
<path d="M1252 1617 c-18 -18 -32 -41 -32 -51 0 -9 -4 -15 -8 -12 -5 3 -9 -1
-9 -9 0 -18 -35 -85 -45 -85 -3 0 -9 9 -13 19 -9 29 -30 42 -53 34 -20 -8 -22
-11 -22 -33 0 -5 -8 -10 -17 -10 -13 0 -14 -3 -5 -8 9 -6 7 -13 -7 -29 -11
-11 -18 -23 -15 -26 2 -2 -1 -9 -8 -15 -19 -15 -87 -22 -95 -9 -4 6 -1 7 7 2
9 -5 11 -4 6 4 -4 6 -11 9 -16 6 -4 -3 -20 11 -34 30 -15 19 -32 35 -37 35
-15 0 -8 -14 31 -65 34 -43 37 -44 90 -45 l56 0 39 79 39 78 16 -27 c63 -111
77 -130 91 -130 15 0 15 6 -3 54 l-20 54 53 93 c29 50 55 86 57 78 3 -8 25
-49 50 -92 l44 -78 -20 -55 c-18 -48 -18 -54 -3 -54 22 1 104 137 95 159 -5
13 -8 12 -18 -9 -14 -30 -34 -36 -43 -13 -4 10 -13 24 -20 31 -7 8 -11 18 -8
23 4 5 3 9 -2 9 -4 0 -13 11 -20 25 -8 19 -8 23 0 19 7 -4 -3 7 -22 25 -19 17
-37 31 -41 31 -3 0 -20 -15 -38 -33z"/>
<path d="M1512 1436 l42 -86 56 0 c54 1 56 2 94 50 l39 50 49 -75 c26 -41 48
-77 48 -80 0 -3 -247 -5 -550 -5 -302 0 -550 2 -550 5 0 2 20 36 45 74 47 73
55 94 30 85 -8 -4 -15 -11 -15 -17 0 -6 -12 -24 -27 -40 -16 -17 -21 -26 -13
-22 8 5 5 -3 -8 -17 -28 -30 -37 -78 -15 -78 8 0 12 -4 9 -9 -4 -5 4 -7 16 -4
19 4 20 3 8 -6 -9 -7 -10 -11 -3 -11 6 0 15 5 18 10 10 16 175 8 175 -9 0 -7
-6 -11 -14 -8 -7 3 -23 -1 -34 -8 -10 -8 -21 -12 -24 -10 -3 3 -4 -4 -3 -14 1
-23 23 -51 38 -51 6 0 22 -10 36 -22 22 -20 23 -20 11 -3 -13 19 -13 19 5 3
18 -16 19 -41 22 -401 2 -244 0 -393 -6 -410 -11 -28 -35 -36 -47 -15 -5 7 -3
8 6 3 8 -5 11 -4 6 3 -4 6 -14 8 -24 5 -9 -3 -14 -3 -10 2 4 4 -7 22 -25 39
-17 17 -31 35 -29 39 1 5 -2 6 -8 2 -5 -3 -10 0 -10 8 0 7 -12 25 -28 39 -15
14 -34 35 -42 47 -8 13 -36 50 -63 83 -26 33 -45 63 -42 68 3 5 0 10 -6 12 -7
2 -4 10 7 18 13 11 16 11 10 2 -7 -11 -4 -11 13 0 12 7 21 15 21 18 0 3 16 14
35 24 19 10 32 23 29 27 -3 5 0 9 5 9 6 0 11 7 11 16 0 8 4 13 9 9 5 -3 12 4
16 15 4 11 10 18 14 16 4 -3 8 0 9 7 0 7 4 26 8 42 9 44 13 195 4 190 -4 -3
-11 2 -14 11 -4 10 -2 13 7 8 9 -6 9 -5 0 8 -7 8 -9 18 -5 22 4 4 0 6 -8 4 -8
-2 -14 3 -12 10 1 8 -2 11 -7 7 -6 -3 -17 7 -25 23 -8 15 -30 37 -50 47 -19
11 -31 22 -25 25 14 9 -33 12 -325 16 -226 4 -261 3 -276 -11 -31 -28 -8 -59
55 -74 30 -7 35 -54 40 -424 5 -320 4 -381 -9 -411 -13 -30 -20 -36 -45 -36
-23 0 -34 -7 -45 -29 -14 -27 -14 -29 10 -40 16 -7 91 -11 204 -11 148 0 181
3 194 15 13 13 13 20 3 35 -6 11 -18 20 -25 20 -7 0 -10 5 -6 12 4 7 3 8 -5 4
-7 -5 -23 -5 -36 -2 -35 9 -48 86 -39 234 4 64 9 111 11 105 3 -7 10 -13 17
-13 18 0 48 -35 39 -45 -5 -4 -2 -5 5 -1 9 6 12 2 10 -10 -2 -10 3 -19 9 -19
7 0 20 -11 30 -25 9 -14 27 -36 39 -49 12 -13 21 -32 19 -42 -2 -11 1 -16 9
-13 7 3 19 -8 27 -23 8 -15 22 -34 32 -41 9 -7 14 -19 11 -25 -4 -7 -4 -9 1
-5 7 7 50 -38 50 -52 0 -10 28 -36 52 -48 15 -8 99 -12 261 -12 225 0 240 1
262 20 13 11 17 20 10 20 -6 0 -10 6 -7 14 4 10 -5 16 -33 21 -64 11 -71 32
-68 198 3 122 5 143 19 144 9 1 22 -8 30 -19 8 -11 24 -32 37 -46 13 -15 34
-43 47 -63 13 -20 30 -43 39 -52 9 -9 15 -20 14 -25 -2 -4 13 -24 32 -43 19
-19 46 -49 60 -68 40 -54 80 -97 80 -86 0 6 4 5 8 -2 11 -17 517 -20 538 -2
32 27 11 64 -44 75 -22 4 -34 14 -40 34 -12 33 -16 290 -5 291 4 0 27 2 51 5
31 3 41 1 36 -8 -4 -6 -3 -8 3 -5 6 4 26 9 44 12 43 6 60 10 81 20 10 4 29 8
42 9 13 0 22 4 19 9 -2 4 2 7 10 7 8 0 17 7 21 15 3 8 10 15 16 15 15 0 50 33
50 47 0 6 6 16 13 20 12 7 27 31 59 96 4 9 6 30 2 45 -4 21 -3 24 5 12 8 -12
11 -7 11 23 0 20 -3 37 -7 37 -5 0 -8 15 -8 33 0 17 -5 43 -12 57 -7 14 -13
31 -13 38 0 6 -5 12 -12 12 -6 0 -9 2 -6 5 10 10 -62 76 -74 69 -7 -4 -8 -3
-4 4 4 7 1 12 -8 12 -9 0 -16 5 -16 12 0 6 -3 9 -6 5 -3 -3 -27 1 -53 9 -33 9
-108 14 -239 15 -126 1 -189 5 -185 12 4 6 1 7 -8 1 -19 -11 -41 -11 -59 1 -8
5 -12 5 -7 0 4 -5 -7 -14 -25 -19 -18 -6 -34 -19 -36 -29 -5 -23 15 -47 38
-47 10 0 28 -9 41 -19 l24 -19 2 -402 c2 -355 0 -403 -14 -420 -15 -17 -18
-17 -39 -3 -13 8 -21 20 -17 26 3 6 1 7 -5 3 -15 -9 -85 60 -76 75 5 8 3 9 -6
4 -10 -6 -12 -4 -7 8 3 9 3 16 -1 15 -13 -2 -42 14 -42 24 0 5 -7 17 -16 25
-9 9 -34 41 -57 72 -23 31 -52 67 -64 81 -29 32 -29 35 7 50 17 7 30 17 30 22
0 5 5 6 10 3 6 -3 10 -2 10 3 0 5 15 17 34 27 19 11 33 23 30 27 -3 4 0 8 5 8
10 0 39 56 46 90 2 8 4 17 5 20 1 3 2 8 1 13 0 4 2 7 7 7 4 0 6 20 4 45 -3 27
1 52 8 60 11 13 10 14 -4 9 -19 -7 -19 -4 -6 30 7 20 6 24 -5 20 -8 -3 -16 4
-20 18 -4 13 -16 32 -26 43 -10 11 -18 25 -18 30 -1 6 -5 10 -10 10 -5 0 -21
10 -35 22 -14 13 -26 21 -26 18 0 -3 -13 1 -30 10 -16 8 -38 15 -50 15 -11 0
-20 3 -20 8 0 4 -94 6 -210 4 -173 -3 -210 -1 -210 10 0 9 11 14 30 13 17 0
30 -4 30 -8 0 -11 71 -6 88 6 8 6 12 6 12 -2 0 -7 24 -11 65 -11 37 0 65 4 65
10 0 6 7 10 16 10 9 0 12 -5 8 -12 -5 -8 -2 -9 12 -3 15 7 176 12 502 15 14 0
27 9 33 23 9 20 6 31 -20 69 -20 29 -29 53 -25 65 5 15 4 15 -5 3 -9 -13 -15
-8 -12 12 0 3 -13 9 -29 13 -34 7 -66 -7 -75 -34 -3 -10 -15 -27 -27 -37 -21
-19 -21 -19 -15 1 7 19 6 19 -7 3 -13 -18 -32 -25 -22 -9 4 5 -4 7 -16 3 -13
-3 -19 -1 -15 5 4 6 -1 10 -11 9 -9 0 -17 6 -17 14 0 8 -6 20 -12 25 -7 6 -21
26 -31 44 -11 19 -24 37 -31 39 -6 2 7 -35 31 -82z m-872 -227 c210 -45 272
-305 108 -455 -24 -22 -65 -49 -90 -59 l-47 -17 60 -77 c33 -42 70 -87 82
-101 13 -14 40 -47 61 -75 57 -73 117 -135 147 -151 26 -13 28 -12 43 20 14
29 16 87 16 419 0 254 -4 395 -11 416 -12 35 -35 51 -73 51 -20 0 -26 5 -26
21 0 20 3 20 258 17 245 -3 259 -4 309 -27 92 -41 153 -136 153 -237 0 -98
-82 -212 -182 -254 l-56 -23 66 -81 c112 -138 198 -240 228 -272 35 -37 87
-66 107 -58 34 13 37 50 37 460 l0 405 -25 24 c-15 16 -36 25 -55 25 -23 0
-30 4 -30 20 0 19 7 20 235 20 261 0 314 -7 382 -53 132 -88 143 -304 23 -427
-79 -80 -209 -122 -320 -102 l-51 9 3 -174 c3 -170 4 -175 27 -194 13 -10 36
-19 52 -19 22 0 29 -5 29 -20 0 -19 -7 -20 -264 -20 l-264 0 -39 48 c-47 56
-242 315 -268 355 -14 21 -25 27 -54 27 l-36 0 2 -87 c8 -286 7 -271 28 -287
11 -9 35 -16 53 -16 25 0 32 -4 32 -20 0 -19 -6 -20 -252 -19 l-253 0 -21 27
c-75 96 -261 342 -278 369 -17 27 -27 33 -58 33 l-38 0 0 -147 c0 -207 13
-243 88 -243 28 0 48 -20 35 -34 -4 -3 -91 -6 -195 -6 -181 0 -188 1 -188 20
0 14 7 20 23 20 50 0 65 11 76 55 16 63 14 768 -2 815 -10 30 -18 36 -54 44
-31 7 -43 15 -43 28 0 17 15 18 230 18 127 0 252 -5 280 -11z"/>
<path d="M455 1136 c-5 -3 -22 -7 -37 -10 l-28 -6 0 -196 0 -197 80 5 c69 4
87 9 122 34 59 42 83 93 83 179 0 81 -24 130 -78 164 -30 18 -119 35 -142 27z
m16 -25 c-8 -5 -9 -11 -3 -15 6 -3 13 -2 16 3 4 7 59 8 74 2 1 -1 5 -2 10 -3
18 -4 63 -59 56 -69 -4 -8 -3 -9 4 -5 8 5 12 0 12 -13 0 -12 4 -21 9 -21 11 0
4 -84 -10 -127 -6 -18 -15 -33 -20 -33 -5 0 -8 -5 -6 -12 1 -6 -8 -17 -20 -23
-13 -7 -20 -15 -16 -19 4 -4 0 -4 -10 0 -10 3 -17 1 -17 -5 0 -6 -10 -11 -22
-11 -55 -2 -101 1 -108 5 -5 3 -7 58 -5 123 2 64 4 138 5 163 0 38 4 48 23 57
27 13 48 15 28 3z"/>
<path d="M1221 1130 c-18 -4 -37 -14 -42 -22 -5 -7 -9 -95 -8 -195 l0 -183 65
0 c142 0 224 77 224 211 0 88 -28 142 -90 174 -34 18 -108 25 -149 15z m137
-35 c21 -5 29 -11 21 -15 -8 -6 -6 -10 7 -14 47 -15 66 -140 33 -212 -12 -24
-25 -44 -31 -44 -5 0 -6 -5 -2 -12 4 -6 3 -8 -4 -4 -6 3 -15 -1 -19 -9 -12
-20 -129 -43 -144 -28 -11 11 -15 326 -4 343 7 11 89 8 143 -5z"/>
<path d="M2055 1136 c-5 -3 -22 -7 -37 -10 l-28 -6 0 -194 0 -194 46 -7 c65
-9 135 10 174 48 49 48 64 84 64 162 1 88 -23 140 -81 173 -38 21 -115 36
-138 28z m77 -32 c39 -5 83 -37 102 -75 19 -38 16 -159 -4 -185 -13 -16 -13
-17 0 -9 8 4 2 -7 -15 -24 -16 -18 -43 -40 -59 -48 -31 -16 -113 -22 -134 -9
-16 10 -14 345 2 347 6 1 24 0 40 -1 20 -1 26 2 21 11 -6 8 -4 10 5 4 7 -4 26
-9 42 -11z"/>
</g>
</svg>
