<?xml version="1.0" standalone="no"?>
<!DOCTYPE svg PUBLIC "-//W3C//DTD SVG 20010904//EN"
 "http://www.w3.org/TR/2001/REC-SVG-20010904/DTD/svg10.dtd">
<svg version="1.0" xmlns="http://www.w3.org/2000/svg"
 width="258.000000pt" height="173.000000pt" viewBox="0 0 258.000000 173.000000"
 preserveAspectRatio="xMidYMid meet">
<metadata>
Created by potrace 1.10, written by Peter Selinger 2001-2011
</metadata>
<g transform="translate(0.000000,173.000000) scale(0.050000,-0.050000)"
fill="#d6b65a" stroke="none">
<path d="M2525 3392 c45 -34 44 -52 -2 -52 -38 0 -92 -89 -73 -120 6 -10 2
-23 -10 -30 -11 -7 -20 -4 -20 7 0 30 -63 46 -90 23 -42 -35 -51 -99 -13 -86
18 6 6 -12 -27 -40 -64 -53 -91 -53 -89 2 2 28 4 27 17 -5 11 -28 19 -32 31
-13 22 35 4 45 -88 50 -59 4 -80 -2 -73 -20 5 -14 -3 -30 -19 -36 -21 -8 -24
-23 -11 -57 24 -64 -9 -127 -50 -94 -15 13 -28 17 -28 9 0 -8 -13 -4 -30 10
-25 20 -30 19 -30 -8 0 -17 8 -32 18 -32 10 0 16 -22 15 -48 -2 -36 -9 -43
-28 -28 -13 11 -20 29 -14 38 6 10 2 18 -8 18 -11 0 -23 14 -27 32 -3 17 -36
44 -72 59 -36 15 -60 19 -54 8 7 -10 -2 -19 -19 -19 -17 0 -29 11 -26 24 13
62 -98 32 -135 -36 -26 -49 -42 -62 -53 -44 -11 18 -16 12 -17 -18 0 -25 -16
-48 -39 -56 -21 -6 -44 -27 -50 -46 -6 -19 -40 -51 -76 -72 l-65 -38 66 -18
c36 -9 61 -25 55 -34 -18 -30 -123 -35 -148 -8 -29 31 -276 36 -286 7 -4 -11
-165 -26 -362 -33 -299 -12 -349 -18 -320 -40 33 -25 33 -27 0 -27 -19 -1 -53
-19 -75 -41 -42 -42 -54 -71 -20 -50 26 16 25 -3 -2 -54 -19 -36 -18 -40 10
-30 18 7 33 2 34 -12 6 -88 15 -120 38 -134 33 -20 61 -303 70 -720 4 -170 13
-368 20 -440 18 -184 17 -228 -8 -236 -12 -4 -22 -38 -22 -76 0 -48 -15 -81
-49 -111 -27 -24 -45 -51 -39 -60 6 -10 -4 -31 -21 -49 -43 -43 23 -168 90
-168 34 0 20 -57 -16 -66 -32 -8 -32 -10 -1 -12 18 -1 39 7 46 18 18 30 264
25 278 -5 10 -20 14 -20 24 0 8 17 63 25 170 25 117 0 158 7 158 26 0 15 30
38 67 53 66 26 135 101 92 101 -12 0 -15 11 -7 23 10 16 4 20 -19 11 -25 -10
-33 -1 -33 32 -1 36 -4 38 -20 14 -16 -24 -19 -22 -20 14 0 24 9 49 20 56 40
25 20 51 -23 29 -33 -18 -46 -17 -59 4 -23 35 -22 57 0 57 29 0 44 61 23 97
-17 28 -20 25 -20 -18 -1 -28 -9 -60 -19 -70 -10 -10 -23 -37 -29 -59 -6 -22
-8 20 -5 94 4 74 0 137 -8 140 -8 3 -11 35 -5 71 12 80 44 66 48 -21 2 -55 4
-57 12 -14 11 59 48 88 69 54 23 -36 18 -68 -5 -34 -15 22 -16 14 -6 -30 14
-64 63 -114 98 -102 12 4 21 -15 20 -43 -1 -30 12 -55 29 -60 27 -7 27 -6 0
13 -21 15 -23 21 -4 22 41 0 66 -86 32 -112 -35 -28 -36 -68 -2 -68 15 0 41
29 59 65 22 43 33 53 34 29 0 -20 10 -31 21 -24 12 7 14 -2 6 -22 -8 -22 -5
-30 9 -21 23 14 22 -36 -1 -60 -26 -26 -14 -43 24 -33 26 6 42 -3 50 -29 7
-21 35 -50 62 -65 27 -14 45 -33 40 -41 -27 -43 67 -69 268 -72 116 -2 284 -8
372 -14 88 -5 149 -5 135 1 -55 21 -20 42 60 36 47 -3 95 2 107 11 12 11 48
11 84 0 44 -12 62 -11 58 4 -2 12 17 33 43 46 62 33 107 80 59 63 -24 -9 -31
-4 -23 18 7 16 -5 49 -26 72 -20 24 -26 36 -12 28 16 -9 21 -4 13 17 -7 17
-21 25 -31 19 -11 -7 -17 4 -13 23 4 26 -13 41 -64 54 -62 17 -66 21 -35 44
19 14 36 38 36 53 1 15 9 10 18 -12 12 -30 18 -17 24 56 6 80 3 90 -18 61 -14
-19 -39 -37 -55 -39 -32 -5 -40 16 -15 40 8 9 15 26 15 39 0 12 23 23 50 23
31 0 48 10 45 26 -4 15 4 21 15 14 16 -10 16 -21 1 -39 -16 -19 -13 -33 10
-52 17 -14 27 -36 22 -49 -14 -36 64 -77 97 -50 43 36 52 -9 18 -91 l-31 -76
56 37 c35 23 49 26 35 8 -37 -48 -49 -97 -20 -86 14 5 37 -4 51 -21 14 -17 34
-25 45 -19 10 7 24 -7 30 -30 6 -23 20 -42 30 -42 11 0 15 -14 8 -31 -9 -24
-2 -29 26 -19 21 6 45 2 52 -11 8 -12 33 -30 57 -39 34 -14 36 -18 8 -19 -19
0 -35 -11 -35 -24 0 -16 33 -19 108 -10 77 9 111 6 117 -11 5 -16 45 -22 114
-18 72 3 112 -3 124 -21 14 -22 24 -19 46 11 20 25 41 32 65 22 73 -30 270
-29 258 2 -7 18 3 28 26 28 21 0 43 -13 49 -29 21 -55 273 17 273 78 0 17 9
31 20 31 11 0 20 19 20 41 0 26 -8 36 -23 27 -15 -9 -18 -5 -8 10 8 13 0 46
-17 72 -18 27 -32 66 -32 87 0 21 -13 44 -30 50 -18 7 -30 1 -30 -15 0 -15
-13 -33 -29 -39 -29 -11 -33 72 -4 100 7 8 13 89 13 182 0 125 6 166 25 160
13 -4 37 4 51 18 25 25 84 34 204 30 69 -2 223 56 209 79 -6 10 0 19 15 20 14
0 44 5 66 10 22 5 54 10 72 12 20 3 29 17 23 40 -6 20 1 36 15 36 13 0 19 13
13 30 -8 21 1 30 29 30 22 0 35 8 29 19 -7 10 3 27 22 37 21 12 29 34 22 61
-10 36 -6 39 27 22 31 -17 38 -14 38 16 0 20 11 48 24 61 13 13 17 24 9 24 -9
0 2 23 24 51 36 45 37 58 14 115 -14 35 -27 123 -30 195 -2 73 -7 149 -11 170
-4 22 -8 45 -8 52 -1 7 -21 17 -45 23 -31 9 -39 23 -32 53 6 23 4 37 -5 31
-18 -11 -64 39 -49 54 6 6 -13 26 -41 44 -28 19 -45 44 -38 56 9 13 5 17 -8 8
-17 -10 -218 68 -308 121 -7 4 -20 -3 -28 -16 -8 -13 -6 -18 6 -11 10 7 19 1
19 -13 0 -20 -10 -21 -45 -5 -24 12 -41 27 -36 35 16 27 -103 39 -254 26 -206
-18 -338 1 -338 50 0 20 -14 48 -32 63 -18 14 -40 47 -50 72 -9 25 -33 46 -53
46 -30 1 -31 3 -5 20 26 17 25 19 -3 20 -19 0 -38 11 -44 25 -7 19 -16 18 -33
-5 -18 -24 -20 -22 -10 15 9 32 3 49 -20 58 -27 10 -28 16 -7 29 19 12 11 17
-24 18 -28 0 -70 -18 -94 -39 -23 -22 -45 -31 -49 -20 -3 11 -40 -4 -82 -32
-79 -54 -147 -53 -126 2 9 24 2 29 -27 19 -64 -20 -93 59 -42 114 48 51 41 65
-27 48 -37 -9 -47 -22 -38 -45 9 -23 5 -29 -11 -19 -12 8 -23 5 -23 -7 0 -11
-19 -21 -41 -21 -23 0 -36 9 -29 20 7 12 21 16 30 10 29 -18 46 32 19 57 -17
16 -21 16 -12 0 15 -27 -62 -52 -78 -25 -7 10 -22 13 -35 5 -16 -9 -16 -4 1
14 32 34 32 65 1 54 -35 -11 -115 65 -102 97 5 16 0 28 -12 28 -12 0 -22 -11
-23 -25 0 -14 -10 -8 -22 12 -16 29 -15 42 5 54 15 9 20 24 11 32 -8 9 -22 4
-31 -10 -19 -31 -58 -24 -110 22 -22 19 -49 35 -61 34 -11 0 -5 -12 14 -27z
m170 -318 l90 -156 -40 -109 c-39 -106 -39 -109 -3 -109 21 0 38 7 39 15 0 8
40 77 88 153 l88 139 76 -154 76 -153 110 1 c109 1 112 2 188 101 l78 100 97
-152 c54 -84 98 -156 98 -161 0 -5 -495 -9 -1100 -9 -605 0 -1100 4 -1100 9 0
5 44 77 97 160 l97 151 78 -99 c76 -97 80 -99 188 -100 l111 -1 76 151 77 152
45 -67 c24 -36 65 -104 91 -151 75 -135 127 -117 75 25 l-41 110 71 115 c38
63 86 147 106 185 24 48 39 60 45 40 5 -16 50 -100 99 -186z m-1416 -656 c549
-117 531 -873 -25 -1046 -33 -11 61 -152 243 -362 19 -22 74 -89 122 -150 415
-518 425 -504 417 613 l-6 811 -47 38 c-26 21 -73 38 -105 38 -45 0 -58 9 -58
41 0 68 979 52 1135 -18 415 -188 396 -761 -33 -968 l-137 -66 42 -51 c24 -28
158 -190 299 -362 333 -403 410 -461 492 -373 41 44 42 62 42 872 l0 827 -49
49 c-31 31 -72 49 -110 49 -48 0 -61 9 -61 40 0 51 868 62 1055 13 504 -131
526 -840 34 -1071 -125 -59 -307 -86 -438 -65 l-114 17 7 -349 c7 -387 21
-425 158 -425 45 0 58 -9 58 -40 0 -39 -13 -40 -530 -40 l-530 0 -115 145
c-63 80 -209 273 -325 430 -208 281 -211 284 -288 285 l-78 0 13 -195 c7 -107
13 -264 13 -349 0 -179 37 -236 154 -236 53 0 66 -8 66 -40 0 -39 -13 -40
-505 -39 l-505 1 -288 377 c-158 207 -302 400 -320 429 -25 41 -47 52 -107 52
l-75 0 0 -307 c0 -406 25 -473 179 -473 48 0 61 -9 61 -40 0 -39 -13 -40 -380
-40 -367 0 -380 1 -380 40 0 28 13 40 45 40 177 1 178 10 171 968 -7 871 -2
843 -139 865 -57 9 -77 22 -77 50 0 44 827 57 1019 15z m2071 -25 c34 -26 33
-28 -23 -36 -46 -7 -60 -1 -62 27 -3 43 33 47 85 9z m81 -138 c8 -25 24 -52
37 -60 13 -8 2 -15 -24 -15 -26 0 -66 -9 -90 -21 -40 -19 -41 -19 -9 7 19 16
35 52 35 81 0 65 32 70 51 8z m-1550 -150 c1 -41 4 -103 8 -138 7 -72 -17
-128 -34 -82 -34 88 -39 295 -7 295 23 0 32 -20 33 -75z m1619 -5 c0 -20 -11
-49 -25 -64 -30 -31 -16 -280 15 -271 11 3 24 -50 30 -118 6 -68 3 -119 -6
-113 -9 5 -13 -156 -10 -357 3 -202 9 -347 12 -322 4 25 14 45 22 45 19 0 -6
-195 -28 -215 -9 -8 -10 2 -3 23 11 30 9 33 -14 15 -23 -19 -27 -11 -25 50 2
76 -72 117 -97 54 -5 -15 -21 -27 -35 -27 -16 0 -18 6 -6 15 28 21 34 65 9 65
-11 0 -18 11 -15 25 5 24 -51 106 -169 246 -39 45 -48 68 -30 74 37 14 6 39
-52 42 -46 3 -48 6 -18 38 38 43 105 46 105 5 0 -16 9 -30 20 -30 11 0 19 26
16 59 -2 32 -11 54 -19 49 -8 -5 -20 1 -27 12 -7 12 -5 19 5 15 22 -6 175 128
176 155 3 44 34 130 48 130 8 0 16 69 18 154 2 84 13 164 23 176 11 13 13 31
5 40 -8 9 -4 10 10 2 17 -10 25 2 25 38 0 30 9 47 20 40 11 -7 20 -29 20 -50z
m-1617 -395 c4 -176 -2 -234 -24 -242 -25 -9 -24 -138 0 -146 11 -4 21 -90 23
-192 2 -149 9 -191 36 -210 28 -20 30 -33 11 -70 -21 -41 -25 -42 -61 -13 -21
17 -27 25 -13 18 15 -7 25 0 25 19 0 21 -19 31 -57 31 -40 0 -63 14 -78 47
-12 26 -54 62 -93 81 -40 19 -72 47 -72 64 0 17 10 24 22 17 15 -10 15 0 -1
30 -13 24 -37 48 -52 54 -16 6 -29 23 -29 37 0 14 -20 31 -45 38 -37 10 -40
15 -16 31 20 12 40 10 59 -5 24 -20 26 -18 12 6 -15 26 -13 26 17 2 48 -39 59
-18 25 48 -34 66 -22 131 16 80 22 -30 173 114 172 164 0 9 -10 3 -22 -14 -19
-27 -20 -27 -13 0 5 17 19 30 32 30 33 0 62 50 49 84 -13 32 31 146 56 146 10
0 19 -61 21 -135z"/>
<path d="M910 2271 c-11 -4 -45 -13 -75 -20 l-55 -12 0 -392 0 -392 161 9
c331 19 525 347 373 631 -62 115 -297 217 -404 176z m71 -211 c11 0 19 9 19
20 0 28 67 25 96 -4 35 -35 29 -62 -12 -51 -26 7 -37 -3 -40 -38 -4 -53 50
-67 69 -17 6 17 19 30 28 30 26 0 44 -80 23 -106 -10 -13 -15 -42 -10 -64 30
-132 30 -151 3 -146 -15 3 -34 15 -42 26 -9 13 -15 11 -15 -4 0 -29 -56 -86
-84 -86 -11 0 -16 18 -10 39 5 22 -3 50 -18 63 -15 12 -29 51 -30 85 -2 61 -3
61 -18 13 -13 -41 -16 -43 -18 -10 -1 22 7 54 18 70 13 20 19 22 20 5 0 -14 9
-25 20 -25 11 0 20 14 20 30 0 17 -7 30 -15 30 -24 0 -63 143 -49 178 11 28
14 27 20 -3 4 -19 15 -35 25 -35z"/>
<path d="M2448 2262 c-110 -28 -108 -18 -108 -423 l0 -379 135 0 c287 1 445
151 445 420 0 280 -207 448 -472 382z m222 -235 c17 -6 43 -1 58 12 20 16 32
17 42 1 7 -11 6 -19 -4 -15 -25 8 -30 -11 -15 -51 8 -20 4 -47 -8 -59 -32 -32
-29 -55 7 -55 17 0 30 -9 30 -20 0 -11 -9 -20 -21 -20 -39 0 -57 -89 -22 -104
26 -10 23 -14 -12 -15 -25 0 -45 8 -45 19 0 11 -36 -2 -79 -29 -105 -67 -111
-38 -82 393 2 32 92 24 106 -9 8 -20 28 -41 45 -48z"/>
<path d="M4110 2271 c-11 -4 -45 -13 -75 -20 l-55 -12 0 -388 0 -387 80 -14
c359 -61 619 311 448 640 -61 118 -291 222 -398 181z m81 -239 c19 -7 29 3 29
29 0 46 12 47 80 10 l50 -28 -55 -14 c-66 -16 -78 -89 -15 -89 36 0 50 21 42
67 -2 9 13 13 32 9 20 -3 39 -27 42 -52 5 -29 -2 -43 -19 -39 -14 3 -29 -15
-33 -40 -4 -26 0 -44 10 -40 9 3 19 -2 23 -11 10 -23 -39 -134 -59 -134 -9 0
-46 -29 -82 -64 l-65 -63 -27 155 c-27 150 -21 211 16 152 10 -16 24 -23 32
-15 7 8 4 26 -7 40 -11 14 -26 66 -32 115 -6 50 -6 75 -1 57 6 -19 23 -39 39
-45z"/>
<path d="M2427 3350 c7 -16 4 -30 -6 -30 -10 0 -17 -18 -16 -40 4 -52 6 -51
44 23 38 78 38 77 -1 77 -20 0 -28 -11 -21 -30z"/>
</g>
</svg>
