 <svg  version="1.0" xmlns="http://www.w3.org/2000/svg"  width="300.000000pt" height="300.000000pt" viewBox="0 0 300.000000 300.000000"  preserveAspectRatio="xMidYMid meet">  <g transform="translate(0.000000,300.000000) scale(0.100000,-0.100000)" fill="#d6b65a" stroke="none"> <path d="M1473 2173 c7 -6 -31 -81 -44 -89 -6 -3 -17 0 -26 7 -13 11 -17 10 -29 -6 -7 -11 -18 -25 -24 -32 -5 -7 -10 -17 -10 -23 0 -10 -13 -14 -40 -10 -8 1 -23 12 -33 26 -23 29 -43 31 -57 4 -6 -11 -15 -18 -20 -15 -6 3 -7 -1 -4 -10 4 -9 -2 -25 -12 -36 -27 -30 -5 -42 73 -42 56 1 63 -1 41 -9 -36 -13 -35 -35 2 -56 16 -9 30 -24 31 -32 4 -85 6 -420 2 -437 -3 -13 -9 -23 -14 -23 -19 0 -115 116 -113 137 1 7 -4 13 -12 13 -7 0 -21 12 -31 26 -16 25 -16 27 3 40 75 55 97 93 98 173 1 49 -3 59 -33 92 -52 59 -90 69 -255 69 -159 0 -183 -8 -147 -48 10 -12 23 -22 29 -22 16 0 20 -45 21 -264 1 -216 -3 -236 -40 -236 -20 0 -27 -34 -9 -45 13 -8 202 -7 224 1 22 9 16 38 -9 42 -35 6 -45 32 -45 119 0 83 11 108 25 56 4 -16 10 -22 12 -15 5 14 82 -86 78 -103 -1 -5 0 -6 3 -2 5 10 38 -34 34 -46 -1 -4 4 -6 10 -5 7 2 12 -5 12 -14 -1 -10 2 -15 7 -13 4 3 12 -2 16 -10 8 -13 33 -15 163 -13 138 3 155 5 158 20 2 12 -6 21 -22 28 -14 5 -28 20 -31 32 -6 26 0 156 8 164 3 3 15 -11 27 -30 12 -20 26 -36 31 -36 5 0 9 -6 9 -13 0 -8 20 -36 45 -63 25 -27 47 -56 50 -64 11 -35 44 -42 196 -41 82 1 156 4 164 8 21 7 14 25 -14 39 -37 19 -44 31 -47 81 -4 64 4 103 22 103 8 0 14 3 14 8 0 4 20 8 44 8 28 1 61 11 88 27 148 87 133 295 -24 338 -24 6 -95 11 -158 10 -80 0 -108 3 -92 9 12 5 22 12 22 16 0 12 -62 104 -70 104 -4 0 -21 -7 -36 -15 -16 -8 -23 -15 -16 -15 7 0 10 -5 7 -11 -4 -6 -9 -8 -12 -5 -3 3 -14 1 -24 -5 -19 -10 -24 -3 -20 28 1 7 -4 10 -12 7 -8 -3 -18 6 -25 21 -12 27 -30 29 -48 5 -10 -12 -16 -6 -35 35 -13 28 -25 52 -26 54 -1 2 -14 5 -29 7 -14 1 -23 0 -21 -3z m60 -62 c22 -41 25 -54 17 -76 -12 -32 -12 -35 -1 -35 6 0 20 18 32 40 13 22 25 40 28 40 3 0 15 -18 25 -40 17 -35 24 -40 52 -40 23 0 39 8 56 28 l24 29 31 -49 32 -48 -325 0 c-178 0 -324 2 -324 5 0 2 12 24 28 48 l27 43 23 -28 c17 -20 33 -28 57 -28 30 0 36 5 51 40 10 22 21 40 24 40 4 0 16 -18 29 -40 12 -22 26 -40 32 -40 11 0 11 3 -1 35 -8 22 -5 35 17 76 16 27 30 49 33 49 3 0 17 -22 33 -49z m237 -170 c-14 -4 -27 -16 -29 -26 -2 -11 -8 -24 -15 -28 -6 -4 3 -5 19 -1 24 4 27 3 15 -6 -13 -10 -11 -11 7 -7 12 3 24 -1 27 -8 7 -20 7 -449 0 -469 -3 -9 -10 -16 -14 -16 -13 0 -96 90 -144 156 l-44 61 32 18 c57 34 82 73 88 138 8 78 -41 159 -105 173 -57 13 -32 20 76 21 62 1 101 -2 87 -6z m-610 -41 c111 -57 99 -226 -20 -279 l-38 -17 83 -104 c94 -118 132 -151 146 -129 5 8 9 123 9 256 0 206 -2 244 -16 257 -8 9 -22 16 -30 16 -8 0 -14 5 -14 10 0 6 56 10 148 10 137 0 152 -2 193 -23 109 -58 98 -214 -18 -273 l-42 -21 94 -116 c157 -192 165 -184 165 144 0 254 -3 269 -51 269 -10 0 -19 5 -19 10 0 16 294 13 333 -4 45 -19 77 -57 88 -106 27 -120 -77 -228 -210 -219 l-51 4 0 -101 c0 -106 7 -124 47 -124 13 0 23 -6 23 -12 0 -10 -37 -13 -157 -11 l-158 2 -48 58 c-26 32 -69 88 -95 125 -34 48 -53 67 -69 68 -22 0 -23 -3 -23 -99 0 -106 10 -131 51 -131 10 0 19 -6 19 -12 0 -10 -35 -13 -147 -11 l-148 1 -95 126 c-71 93 -101 125 -117 125 -22 1 -23 -3 -23 -78 0 -116 7 -141 41 -148 16 -3 29 -11 29 -17 0 -7 -35 -11 -110 -11 -81 0 -110 3 -110 13 0 6 8 12 19 12 10 0 23 6 29 13 12 14 25 411 15 471 -5 31 -12 41 -35 50 -15 6 -28 14 -28 18 0 4 68 8 150 8 131 0 156 -3 190 -20z"/> <path d="M977 1863 c-4 -3 -7 -57 -7 -120 l0 -113 30 0 c48 0 109 30 125 61 8 15 15 49 15 74 0 38 -5 52 -29 76 -25 24 -38 29 -79 29 -27 0 -52 -3 -55 -7z m113 -38 c11 -28 22 -35 14 -7 -4 12 -3 13 3 5 5 -7 9 -38 9 -69 -1 -49 -5 -59 -27 -76 -14 -11 -42 -21 -62 -22 l-37 -3 0 98 0 99 45 0 c39 0 47 -3 55 -25z"/> <path d="M1085 1700 c-3 -5 -1 -10 4 -10 6 0 11 5 11 10 0 6 -2 10 -4 10 -3 0 -8 -4 -11 -10z"/> <path d="M1437 1863 c-4 -3 -7 -57 -7 -120 l0 -113 30 0 c44 0 93 23 119 56 19 24 22 38 19 83 -6 72 -37 101 -107 101 -26 0 -51 -3 -54 -7z m117 -34 c24 -19 27 -27 25 -72 -2 -36 -9 -58 -26 -76 -12 -15 -23 -20 -23 -13 0 10 -4 10 -16 -2 -21 -22 -54 -21 -54 2 -1 9 -2 54 -3 100 l-2 82 36 0 c22 0 47 -8 63 -21z"/> <path d="M1917 1863 c-4 -3 -7 -57 -7 -120 l0 -113 40 0 c55 0 94 22 114 64 29 62 13 136 -35 161 -29 15 -100 20 -112 8z m117 -32 c33 -36 33 -150 1 -137 -9 3 -12 0 -9 -9 3 -7 -4 -18 -15 -24 -27 -15 -81 -14 -82 2 -1 6 -2 51 -3 99 l-1 88 46 0 c33 0 51 -6 63 -19z"/> <path d="M2025 1810 c3 -5 8 -10 11 -10 2 0 4 5 4 10 0 6 -5 10 -11 10 -5 0 -7 -4 -4 -10z"/> <path d="M1940 1680 c0 -5 5 -10 11 -10 5 0 7 5 4 10 -3 6 -8 10 -11 10 -2 0 -4 -4 -4 -10z"/> <path d="M1667 1415 c-4 -8 -3 -16 1 -19 4 -3 9 4 9 15 2 23 -3 25 -10 4z"/> <path d="M1281 2044 c0 -11 3 -14 6 -6 3 7 2 16 -1 19 -3 4 -6 -2 -5 -13z"/> <path d="M1272 1795 c0 -16 2 -22 5 -12 2 9 2 23 0 30 -3 6 -5 -1 -5 -18z"/> <path d="M1301 1714 c0 -11 3 -14 6 -6 3 7 2 16 -1 19 -3 4 -6 -2 -5 -13z"/> <path d="M1251 1474 c13 -17 26 -30 28 -27 3 2 -8 16 -24 31 l-28 27 24 -31z"/> <path d="M531 1183 c-14 -11 -14 -14 -1 -23 22 -14 1897 -14 1906 1 20 33 -8 34 -953 34 -726 0 -940 -3 -952 -12z m1899 -13 c0 -7 -322 -10 -945 -10 -623 0 -945 3 -945 10 0 7 322 10 945 10 623 0 945 -3 945 -10z"/> <path d="M615 975 c0 -33 5 -53 15 -60 20 -13 41 -15 34 -4 -3 5 -11 9 -18 9 -8 0 -11 10 -8 30 2 17 -1 36 -7 44 -9 11 -6 13 21 12 39 -2 53 -34 19 -43 -12 -3 -21 -8 -21 -12 0 -14 49 -50 55 -41 4 6 2 10 -3 10 -5 0 -7 14 -4 30 2 17 10 30 18 30 16 0 19 -17 4 -22 -5 -1 -7 -13 -4 -25 4 -15 11 -20 22 -16 10 4 13 2 8 -5 -3 -6 -2 -13 3 -16 10 -7 9 9 -4 37 -10 24 1 47 24 47 20 0 31 -17 24 -37 -8 -21 -22 -15 -16 7 3 11 1 20 -4 20 -20 0 -23 -14 -8 -37 9 -13 12 -23 8 -23 -5 0 -1 -5 7 -10 16 -10 79 -3 95 11 16 15 28 10 15 -6 -8 -9 -8 -15 -2 -15 6 0 12 4 14 9 2 4 14 12 27 16 14 4 21 3 18 -2 -4 -5 -1 -10 6 -11 7 0 23 -4 36 -8 16 -5 22 -4 17 4 -3 6 -2 13 3 16 13 8 42 -4 35 -15 -3 -5 0 -9 5 -9 6 0 11 7 11 15 0 18 27 20 32 4 2 -7 35 -14 81 -16 66 -3 76 -2 71 12 -4 10 0 15 15 15 23 0 29 -15 9 -23 -10 -4 -10 -6 1 -6 21 -1 61 41 61 65 0 16 7 23 30 26 16 3 35 1 42 -4 10 -6 10 -8 1 -8 -7 0 -13 -7 -13 -15 0 -8 5 -15 11 -15 5 0 7 -5 4 -10 -9 -15 -25 -2 -25 19 0 10 -7 18 -16 18 -11 0 -14 -7 -11 -24 3 -14 -1 -23 -8 -23 -7 0 -16 -7 -19 -16 -6 -15 -4 -15 18 0 31 20 36 20 36 1 0 -12 4 -11 20 5 35 35 10 111 -29 91 -9 -5 -35 -8 -59 -8 -44 -1 -73 -16 -57 -30 4 -5 10 -2 12 5 7 17 42 15 50 -4 3 -8 1 -20 -6 -27 -8 -8 -11 -5 -11 11 0 12 -4 22 -10 22 -14 0 -13 -23 2 -38 8 -8 8 -12 1 -12 -6 0 -16 7 -24 16 -11 14 -13 14 -21 -1 -5 -8 -14 -12 -20 -9 -7 5 -9 1 -5 -9 4 -10 1 -17 -6 -17 -9 0 -12 12 -10 38 3 29 1 33 -6 16 -5 -12 -17 -24 -26 -28 -9 -3 -13 -10 -10 -16 3 -5 0 -10 -7 -10 -10 0 -12 11 -10 41 4 34 8 40 26 38 43 -3 77 1 72 10 -3 4 -41 7 -85 5 -63 -3 -80 -1 -85 11 -13 34 -71 6 -64 -31 2 -11 -4 -20 -14 -22 -10 -2 -18 1 -18 7 0 6 6 11 13 11 6 1 1 10 -12 20 -17 15 -27 17 -36 10 -7 -6 -20 -8 -29 -4 -9 4 -16 1 -16 -6 0 -9 11 -11 35 -7 19 3 37 1 40 -4 4 -5 1 -9 -5 -9 -8 0 -10 -9 -6 -26 5 -17 3 -23 -4 -19 -5 3 -10 14 -10 24 0 12 -7 17 -22 16 -27 -2 -27 -16 -2 -25 13 -5 14 -9 5 -14 -18 -11 -43 14 -36 35 4 11 2 19 -4 19 -6 0 -11 -7 -11 -15 0 -8 -5 -15 -11 -15 -5 0 -7 5 -4 10 3 6 1 10 -4 10 -6 0 -11 -7 -11 -15 0 -8 8 -15 17 -15 12 0 14 -3 6 -11 -15 -15 -33 -3 -33 23 0 11 8 22 20 25 11 3 20 10 20 15 0 6 -7 7 -16 4 -19 -7 -47 12 -38 25 3 5 -2 9 -10 9 -20 0 -16 -23 4 -31 8 -3 -14 -6 -49 -7 -49 -1 -68 3 -80 16 -9 9 -30 17 -46 17 -30 0 -30 -1 -30 -50z m454 14 c4 -12 2 -12 -12 0 -22 17 -22 3 -1 -20 9 -10 14 -26 10 -34 -7 -20 -37 -16 -44 5 -4 13 -3 13 10 2 24 -19 31 2 8 23 -16 14 -17 21 -8 32 13 16 30 13 37 -8z m-245 -37 c-1 -34 -11 -52 -27 -51 -9 0 -9 2 1 6 6 2 12 20 12 39 0 19 3 34 8 34 4 0 7 -13 6 -28z m276 8 c0 -11 5 -20 11 -20 6 0 9 9 6 20 -3 11 -2 20 3 20 4 0 10 -11 12 -25 5 -24 3 -26 -29 -25 -11 0 -23 50 -12 50 5 0 9 -9 9 -20z m-100 -27 c0 -5 -5 -15 -10 -23 -8 -12 -10 -11 -10 8 0 12 5 22 10 22 6 0 10 -3 10 -7z"/> <path d="M1683 1019 c-28 -10 -44 -40 -36 -67 5 -22 89 -70 100 -58 4 3 -1 6 -10 6 -9 0 -17 5 -17 10 0 14 23 13 38 -2 8 -8 12 -8 12 -1 0 6 -7 14 -16 17 -23 9 -14 51 11 51 15 0 20 -7 20 -28 -1 -22 5 -29 25 -33 14 -3 30 -7 37 -9 6 -2 14 1 17 8 3 9 5 8 5 -1 1 -7 6 -10 11 -7 6 4 17 2 24 -4 15 -13 37 -11 48 3 4 6 13 5 22 -3 8 -7 21 -11 28 -8 8 4 7 6 -4 6 -10 1 -18 5 -18 10 0 5 10 7 22 3 14 -3 19 -2 14 7 -4 6 -10 9 -14 7 -4 -2 -7 16 -7 40 0 24 3 44 7 44 5 0 8 -17 8 -37 0 -23 9 -48 20 -63 11 -14 19 -19 18 -11 -2 7 3 16 10 18 6 3 12 0 12 -7 0 -6 4 -9 9 -5 5 3 13 0 16 -5 5 -7 12 -5 21 7 9 13 13 14 14 4 0 -11 3 -11 15 -1 8 7 15 8 15 3 0 -5 7 -10 16 -10 15 0 15 1 0 12 -17 13 -22 65 -6 65 6 0 10 -8 10 -18 0 -22 22 -72 32 -72 17 0 18 23 2 35 -10 7 -19 27 -20 45 -2 39 -18 58 -36 42 -7 -5 -16 -11 -21 -11 -4 0 -18 -3 -32 -7 -14 -3 -33 -3 -42 1 -10 5 -24 7 -30 6 -7 -1 -13 3 -13 9 0 15 -29 12 -47 -6 -12 -12 -27 -14 -54 -10 -22 4 -40 2 -44 -4 -4 -7 -12 -7 -18 -2 -7 5 -25 7 -42 6 -16 -2 -35 2 -42 8 -10 8 -13 7 -13 -2 0 -10 -4 -9 -17 2 -28 24 -37 26 -60 17z m45 -29 c3 -12 2 -12 -8 -3 -18 17 -40 5 -40 -22 0 -23 25 -41 35 -26 3 5 -2 11 -10 15 -15 6 -21 26 -7 26 15 0 34 -42 23 -53 -18 -18 -61 8 -61 37 0 40 57 61 68 26z m354 -15 c18 0 23 -6 25 -30 2 -28 1 -29 -12 -11 -8 10 -13 22 -11 25 2 3 -7 7 -21 7 -22 2 -24 -1 -18 -23 3 -14 2 -22 -3 -19 -5 3 -12 17 -14 30 -6 29 11 53 23 34 5 -7 18 -13 31 -13z m63 -19 c2 -20 -1 -36 -6 -36 -9 0 -11 11 -11 45 0 51 12 44 17 -9z m-287 -8 c2 -16 -1 -28 -7 -28 -6 0 -11 11 -11 25 0 14 -5 25 -11 25 -6 0 -9 -10 -7 -23 3 -13 0 -24 -6 -24 -6 0 -11 13 -11 29 0 25 3 28 25 26 19 -2 26 -10 28 -30z m52 21 c0 -5 -6 -7 -12 -3 -9 6 -9 3 0 -9 8 -9 11 -21 7 -27 -3 -5 1 -10 9 -10 9 0 16 -4 16 -10 0 -15 -12 -12 -40 10 -20 16 -21 19 -5 13 19 -6 19 -6 2 14 -9 11 -14 23 -10 26 10 11 33 8 33 -4z m30 -9 c0 -11 5 -20 10 -20 6 0 10 9 10 20 0 11 5 20 10 20 6 0 10 -13 10 -28 0 -23 -4 -28 -22 -27 -15 1 -24 10 -29 28 -4 15 -3 27 2 27 5 0 9 -9 9 -20z m140 -26 c0 -8 -4 -12 -10 -9 -5 3 -10 10 -10 16 0 5 5 9 10 9 6 0 10 -7 10 -16z"/> <path d="M1571 999 c-26 -28 -27 -54 -1 -86 11 -14 20 -20 20 -13 0 7 7 10 15 6 18 -6 28 26 23 75 -4 42 -28 49 -57 18z m39 -18 c0 -16 3 -37 6 -45 5 -12 1 -15 -15 -13 -12 2 -26 8 -31 13 -14 14 -2 44 17 44 9 0 13 6 9 15 -3 8 -1 15 4 15 6 0 10 -13 10 -29z"/> <path d="M1580 955 c0 -8 5 -15 10 -15 6 0 10 7 10 15 0 8 -4 15 -10 15 -5 0 -10 -7 -10 -15z"/> <path d="M1450 988 c-31 -11 -27 -61 6 -83 15 -9 24 -13 20 -7 -3 5 1 12 9 16 8 3 17 1 20 -4 4 -6 1 -10 -6 -10 -7 0 -10 -2 -7 -5 8 -9 35 5 36 18 0 7 4 22 7 35 5 14 3 22 -4 22 -6 0 -11 -11 -11 -25 0 -14 -4 -25 -10 -25 -5 0 -10 14 -10 30 0 25 4 30 25 30 14 0 25 3 25 8 0 9 -74 9 -100 0z m30 -22 c0 -8 2 -21 5 -29 4 -9 -1 -13 -16 -12 -13 1 -25 8 -27 15 -3 8 1 11 10 8 8 -4 15 0 15 7 0 7 -6 11 -14 8 -7 -3 -13 0 -13 6 0 6 9 11 20 11 11 0 20 -6 20 -14z"/> <path d="M2205 990 c-3 -5 3 -10 15 -10 24 0 38 -26 21 -43 -8 -8 -11 -5 -11 11 0 12 -5 22 -11 22 -19 0 -5 -35 19 -45 12 -5 22 -13 22 -18 0 -4 6 -5 12 0 7 4 22 7 33 8 15 0 20 7 21 30 0 17 -4 36 -9 42 -9 12 -46 11 -66 -1 -5 -4 -12 -2 -16 4 -8 13 -22 13 -30 0z m107 -40 c3 -19 0 -30 -7 -30 -8 0 -10 10 -7 25 2 15 0 25 -7 25 -6 0 -11 -11 -11 -25 0 -14 -4 -25 -10 -25 -5 0 -10 14 -10 30 0 25 4 30 24 30 19 0 25 -6 28 -30z"/> <path d="M650 980 c0 -5 5 -10 10 -10 6 0 10 5 10 10 0 6 -4 10 -10 10 -5 0 -10 -4 -10 -10z"/> <path d="M1165 959 c-10 -15 3 -25 16 -12 7 7 7 13 1 17 -6 3 -14 1 -17 -5z"/> <path d="M1220 955 c0 -8 5 -15 10 -15 6 0 10 7 10 15 0 8 -4 15 -10 15 -5 0 -10 -7 -10 -15z"/> <path d="M1757 964 c-9 -9 4 -35 14 -28 5 3 9 12 9 20 0 14 -12 19 -23 8z"/> <path d="M1540 911 c0 -5 7 -11 14 -14 10 -4 13 -1 9 9 -6 15 -23 19 -23 5z"/> <path d="M1400 900 c0 -5 5 -10 11 -10 5 0 7 5 4 10 -3 6 -8 10 -11 10 -2 0 -4 -4 -4 -10z"/> <path d="M530 860 c-45 -28 23 -30 955 -28 759 2 949 6 951 16 1 7 0 8 -3 2 -7 -14 -1893 -14 -1893 0 0 6 326 11 943 13 l942 2 -940 2 c-576 2 -946 -1 -955 -7z"/> </g> </svg> 